<?xml version="1.0" encoding="UTF-8"?>
<svg width="24" height="24" viewBox="0 0 24 24" fill="none" xmlns="http://www.w3.org/2000/svg">
  <!-- Pet silhouette with booking checkmark -->
  <g fill="#FF8A65">
    <!-- Simple pet/dog silhouette -->
    <path d="M4 12c0-2 1-3 2-3s2 1 2 3v4c0 1-1 2-2 2s-2-1-2-2v-4z"/>
    <circle cx="8" cy="8" r="3"/>
    <path d="M11 10c1-1 2-1 3 0s1 2 0 3l-1 1c-1 1-2 1-3 0s-1-2 0-3l1-1z"/>
  </g>
  
  <!-- Checkmark for booking confirmation -->
  <g stroke="#81C784" stroke-width="2.5" fill="none">
    <path d="M16 9l2 2 4-4"/>
  </g>
</svg>
